<?xml version="1.0" encoding="utf-8"?><svg viewBox="0 0 142 142" xmlns="http://www.w3.org/2000/svg" xmlns:xlink="http://www.w3.org/1999/xlink"><style>:root>svg{display:none}:root>svg:target{display:block}</style><svg fill="none" viewBox="0 0 82 82" id="develop-left" xmlns="http://www.w3.org/2000/svg"><path d="M64.917 41H17.084" stroke="url(#apaint0_linear_1115_2594)" stroke-width="2" stroke-linecap="round" stroke-linejoin="round"/><path d="M41 17.083L17.083 41 41 64.916" stroke="url(#apaint1_linear_1115_2594)" stroke-width="2" stroke-linecap="round" stroke-linejoin="round"/><defs><linearGradient id="apaint0_linear_1115_2594" x1="15.375" y1="41.907" x2="15.435" y2="39.695" gradientUnits="userSpaceOnUse"><stop stop-color="#A7F306"/><stop offset="1" stop-color="#F3CD06"/></linearGradient><linearGradient id="apaint1_linear_1115_2594" x1="16.229" y1="60.475" x2="51.853" y2="46.7" gradientUnits="userSpaceOnUse"><stop stop-color="#A7F306"/><stop offset="1" stop-color="#F3CD06"/></linearGradient></defs></svg><svg fill="none" viewBox="0 0 82 82" id="develop-right" xmlns="http://www.w3.org/2000/svg"><path d="M17.083 41h47.833M41 17.083L64.917 41 41 64.916" stroke="#A7F306" stroke-width="2" stroke-linecap="round" stroke-linejoin="round"/><defs><linearGradient id="bpaint0_linear_1115_2591" x1="66.625" y1="41.907" x2="66.565" y2="39.695" gradientUnits="userSpaceOnUse"><stop stop-color="#A7F306"/><stop offset="1" stop-color="#F3CD06"/></linearGradient><linearGradient id="bpaint1_linear_1115_2591" x1="65.771" y1="60.475" x2="30.147" y2="46.7" gradientUnits="userSpaceOnUse"><stop stop-color="#A7F306"/><stop offset="1" stop-color="#F3CD06"/></linearGradient></defs></svg><svg fill="none" viewBox="0 0 23 23" id="header-arrow-up" xmlns="http://www.w3.org/2000/svg"><path d="M6.708 16.291L16.1 6.9" stroke="#fff" stroke-width="2" stroke-linecap="square" stroke-linejoin="round"/><path d="M6.709 6.708h9.583v9.584" stroke="#fff" stroke-width="2" stroke-linecap="square"/></svg><svg fill="none" viewBox="0 0 142 142" id="review-left" xmlns="http://www.w3.org/2000/svg"><g opacity=".5" stroke="#fff" stroke-width="4" stroke-linecap="square"><path d="M100.462 71H42.715" stroke-linejoin="round"/><path d="M71 41.536L41.537 71 71 100.462"/></g></svg><svg fill="none" viewBox="0 0 142 142" id="review-right" xmlns="http://www.w3.org/2000/svg"><g opacity=".9" stroke="#fff" stroke-width="4" stroke-linecap="square"><path d="M41.538 71h57.747" stroke-linejoin="round"/><path d="M71 41.536L100.463 71 71 100.462"/></g></svg><svg fill="none" viewBox="0 0 125 125" id="techno-arrow" xmlns="http://www.w3.org/2000/svg"><g opacity=".9" stroke="#fff" stroke-width="3" stroke-linecap="square"><path d="M36.458 88.542L87.5 37.5" stroke-linejoin="round"/><path d="M36.459 36.459h52.083v52.083"/></g></svg><svg fill="none" viewBox="0 0 24 24" id="techno-ok" xmlns="http://www.w3.org/2000/svg"><path d="M20 6L9 17l-5-5" stroke="#A7F306" stroke-width="2" stroke-linecap="round" stroke-linejoin="round"/><defs><linearGradient id="gpaint0_linear_1115_2569" x1="20.571" y1="15.979" x2="8.478" y2="2.375" gradientUnits="userSpaceOnUse"><stop stop-color="#A7F306"/><stop offset="1" stop-color="#F3CD06"/></linearGradient></defs></svg><svg fill="none" viewBox="0 0 107 107" id="we-support-left" xmlns="http://www.w3.org/2000/svg"><g opacity=".9" stroke="#fff" stroke-width="4" stroke-linecap="square"><path d="M75.613 53.378H32.03" stroke-linejoin="round"/><path d="M53.377 31.141L31.141 53.377l22.236 22.236"/></g></svg><svg fill="none" viewBox="0 0 108 108" id="we-support-right" xmlns="http://www.w3.org/2000/svg"><g opacity=".9" stroke="#000" stroke-width="4" stroke-linecap="square"><path d="M31.902 54h43.31" stroke-linejoin="round"/><path d="M54 31.904L76.097 54 54 76.098"/></g></svg></svg>